<mxfile host="app.diagrams.net" modified="2023-05-02T12:13:53.423Z" agent="Mozilla/5.0 (Windows NT 6.1; WOW64) AppleWebKit/537.36 (KHTML, like Gecko) Chrome/109.0.0.0 Safari/537.36" version="21.2.4" etag="o7My7jK1pJNDyRryEbia" type="github">
  <diagram name="Page-1" id="KlIDd-0xbrl1NnuJXj5e">
    <mxGraphModel>
      <root>
        <mxCell id="0" />
        <mxCell id="1" parent="0" />
      </root>
    </mxGraphModel>
  </diagram>
</mxfile>
